<?xml version="1.0" encoding="UTF-8"?>
<!DOCTYPE svg PUBLIC "-//W3C//DTD SVG 1.1//EN" "http://www.w3.org/Graphics/SVG/1.1/DTD/svg11.dtd">
<svg xmlns="http://www.w3.org/2000/svg" version="1.1" width="756px" height="756px" style="shape-rendering:geometricPrecision; text-rendering:geometricPrecision; image-rendering:optimizeQuality; fill-rule:evenodd; clip-rule:evenodd" xmlns:xlink="http://www.w3.org/1999/xlink">
<g><path style="opacity:0.556" fill="#597b97" d="M 188.5,80.5 C 251.33,81.8333 314.496,82.5 378,82.5C 441.504,82.5 504.67,81.8333 567.5,80.5C 568.391,81.1098 569.391,81.4431 570.5,81.5C 572.946,82.6877 575.28,84.021 577.5,85.5C 575.518,85.0046 573.518,84.5046 571.5,84C 442.834,83.5 314.167,83.3333 185.5,83.5C 186.167,82.8333 186.833,82.1667 187.5,81.5C 187.5,80.8333 187.833,80.5 188.5,80.5 Z"/></g>
<g><path style="opacity:0.2" fill="#c7d9e7" d="M 188.5,80.5 C 314.833,80.5 441.167,80.5 567.5,80.5C 504.67,81.8333 441.504,82.5 378,82.5C 314.496,82.5 251.33,81.8333 188.5,80.5 Z"/></g>
<g><path style="opacity:1" fill="#184c78" d="M 185.5,83.5 C 314.167,83.3333 442.834,83.5 571.5,84C 573.518,84.5046 575.518,85.0046 577.5,85.5C 594.034,91.3654 604.7,102.699 609.5,119.5C 610.259,125.227 611.426,130.894 613,136.5C 613.5,295.833 613.667,455.166 613.5,614.5C 613.5,615.833 613.5,617.167 613.5,618.5C 613.671,622.639 613.004,626.639 611.5,630.5C 611.543,631.416 611.876,632.083 612.5,632.5C 612.5,632.833 612.5,633.167 612.5,633.5C 611.325,633.281 610.325,633.614 609.5,634.5C 604.067,650.604 593.4,661.938 577.5,668.5C 572.636,670.041 567.636,670.708 562.5,670.5C 562.032,658.821 561.365,647.154 560.5,635.5C 561.326,640.444 562.493,645.444 564,650.5C 564.499,655.489 564.666,660.489 564.5,665.5C 566.39,665.703 567.89,665.037 569,663.5C 569.453,660.16 569.953,656.826 570.5,653.5C 567.351,640.424 567.018,627.257 569.5,614C 569.517,609.712 568.851,605.545 567.5,601.5C 568.046,600.228 568.379,598.894 568.5,597.5C 567.214,594.595 566.214,591.595 565.5,588.5C 565.437,585.062 565.77,581.562 566.5,578C 565.5,575.667 564.5,573.333 563.5,571C 564.449,560.812 563.783,550.645 561.5,540.5C 561.277,530.496 561.277,520.496 561.5,510.5C 559.99,502.205 559.657,493.872 560.5,485.5C 559.009,479.628 558.175,473.628 558,467.5C 556.397,466.114 555.563,464.281 555.5,462C 555.95,453.594 555.95,445.094 555.5,436.5C 556.441,436.511 557.108,436.011 557.5,435C 556.323,432.354 556.323,429.688 557.5,427C 554.796,421.347 553.13,415.347 552.5,409C 553.09,406.804 553.757,404.638 554.5,402.5C 553.396,385.26 552.396,367.927 551.5,350.5C 551.915,348.178 552.249,345.845 552.5,343.5C 551.799,335.119 550.799,326.786 549.5,318.5C 549.614,315.801 549.947,313.135 550.5,310.5C 549.737,304.504 548.07,298.504 545.5,292.5C 545.741,284.696 546.074,277.196 546.5,270C 545.142,268.168 544.808,266.335 545.5,264.5C 544.883,254.832 544.05,245.165 543,235.5C 541.303,233.301 539.803,230.968 538.5,228.5C 533.473,227.324 529.473,224.657 526.5,220.5C 515.495,219.234 504.495,219.234 493.5,220.5C 489.442,220.727 486.609,219.061 485,215.5C 484.667,215.833 484.333,216.167 484,216.5C 483.08,213.899 482.413,211.232 482,208.5C 481.833,193.156 481.333,177.822 480.5,162.5C 478.648,160.143 477.481,157.477 477,154.5C 476.832,180.67 476.332,206.67 475.5,232.5C 475.667,205.831 475.5,179.165 475,152.5C 470.954,147.96 467.121,143.293 463.5,138.5C 463.5,137.5 463.5,136.5 463.5,135.5C 407.947,135.695 352.447,135.362 297,134.5C 293.835,134.334 291.002,135.167 288.5,137C 288.957,137.414 289.291,137.914 289.5,138.5C 287.98,140.662 286.98,142.995 286.5,145.5C 286.5,146.167 286.167,146.5 285.5,146.5C 282.909,147.254 281.076,148.921 280,151.5C 278.118,155.988 276.785,160.655 276,165.5C 275.794,180.688 275.294,195.854 274.5,211C 275.443,214.24 274.776,217.24 272.5,220C 272.833,220.333 273.167,220.667 273.5,221C 270.284,221.003 267.617,222.169 265.5,224.5C 261.05,223.861 256.55,223.528 252,223.5C 242.796,223.744 233.629,224.411 224.5,225.5C 224.335,227.827 223.669,229.993 222.5,232C 241.83,232.5 261.164,232.667 280.5,232.5C 281.167,232.5 281.5,232.833 281.5,233.5C 260.833,233.5 240.167,233.5 219.5,233.5C 219.5,239.833 219.5,246.167 219.5,252.5C 218.927,260.645 218.26,268.645 217.5,276.5C 217.114,265.446 217.114,254.446 217.5,243.5C 216.675,242.614 215.675,242.281 214.5,242.5C 215.823,245.281 215.656,247.947 214,250.5C 213.257,248.355 212.424,248.189 211.5,250C 213.069,256.667 212.569,263.167 210,269.5C 209.092,281.486 208.425,293.486 208,305.5C 207.749,307.433 207.249,309.266 206.5,311C 208.14,322.216 207.14,333.216 203.5,344C 205.186,349.417 206.186,354.75 206.5,360C 204.836,368.171 203.336,376.338 202,384.5C 201.772,392.528 201.272,400.528 200.5,408.5C 200.833,409.833 201.167,411.167 201.5,412.5C 199.326,417.55 198.993,422.717 200.5,428C 200.128,430.743 199.461,433.41 198.5,436C 198.645,437.226 198.978,438.393 199.5,439.5C 198.694,448.452 198.194,457.452 198,466.5C 196.115,484.998 194.615,503.665 193.5,522.5C 193.838,526.489 194.172,530.489 194.5,534.5C 191.739,548.434 190.739,562.268 191.5,576C 187.479,592.218 187.146,608.551 190.5,625C 189.603,637.182 188.603,649.349 187.5,661.5C 188.075,664.357 189.742,666.024 192.5,666.5C 192.19,663.287 192.523,660.287 193.5,657.5C 193.5,661.833 193.5,666.167 193.5,670.5C 186.737,670.89 180.404,669.557 174.5,666.5C 170.531,664.849 166.865,662.682 163.5,660C 158.063,654.287 153.23,648.12 149,641.5C 146.039,632.658 143.872,623.658 142.5,614.5C 142.5,454.5 142.5,294.5 142.5,134.5C 142.5,133.833 142.5,133.167 142.5,132.5C 146.807,109.702 159.474,93.5357 180.5,84C 182.134,83.5065 183.801,83.3398 185.5,83.5 Z"/></g>
<g><path style="opacity:0.071" fill="#bccfe0" d="M 570.5,81.5 C 583.641,83.7912 594.474,90.1245 603,100.5C 610.839,111.53 615.339,123.863 616.5,137.5C 615.833,137.167 615.167,136.833 614.5,136.5C 613.715,131.846 612.882,127.179 612,122.5C 611.764,120.881 610.931,119.881 609.5,119.5C 604.7,102.699 594.034,91.3654 577.5,85.5C 575.28,84.021 572.946,82.6877 570.5,81.5 Z"/></g>
<g><path style="opacity:0.282" fill="#b5c9de" d="M 187.5,81.5 C 186.833,82.1667 186.167,82.8333 185.5,83.5C 183.801,83.3398 182.134,83.5065 180.5,84C 159.474,93.5357 146.807,109.702 142.5,132.5C 141.833,132.833 141.167,133.167 140.5,133.5C 139.903,133.265 139.57,132.765 139.5,132C 144.02,109.27 156.686,92.9367 177.5,83C 180.757,81.9571 184.09,81.4571 187.5,81.5 Z"/></g>
<g><path style="opacity:1" fill="#1c4a80" d="M 463.5,138.5 C 406.568,137.171 349.568,137.171 292.5,138.5C 290.448,140.878 288.448,143.211 286.5,145.5C 286.98,142.995 287.98,140.662 289.5,138.5C 289.291,137.914 288.957,137.414 288.5,137C 291.002,135.167 293.835,134.334 297,134.5C 352.447,135.362 407.947,135.695 463.5,135.5C 463.5,136.5 463.5,137.5 463.5,138.5 Z"/></g>
<g><path style="opacity:0.008" fill="#e4eaf8" d="M 616.5,137.5 C 617.499,200.331 617.832,263.331 617.5,326.5C 616.833,326.5 616.167,326.5 615.5,326.5C 615.192,262.936 615.525,199.936 616.5,137.5 Z"/></g>
<g><path style="opacity:0.379" fill="#4a6e8e" d="M 142.5,134.5 C 142.5,294.5 142.5,454.5 142.5,614.5C 141.833,456.431 141.166,298.264 140.5,140C 141.109,138.052 141.776,136.218 142.5,134.5 Z"/></g>
<g><path style="opacity:1" fill="#4c75b9" d="M 463.5,138.5 C 467.121,143.293 470.954,147.96 475,152.5C 475.5,179.165 475.667,205.831 475.5,232.5C 475.5,232.833 475.5,233.167 475.5,233.5C 466.833,233.5 458.167,233.5 449.5,233.5C 449.5,233.167 449.5,232.833 449.5,232.5C 449.5,210.833 449.5,189.167 449.5,167.5C 401.833,167.5 354.167,167.5 306.5,167.5C 306.5,187.5 306.5,207.5 306.5,227.5C 305.539,229.265 305.205,231.265 305.5,233.5C 297.5,233.5 289.5,233.5 281.5,233.5C 281.5,232.833 281.167,232.5 280.5,232.5C 280.333,205.831 280.5,179.165 281,152.5C 283.102,150.905 284.602,148.905 285.5,146.5C 286.167,146.5 286.5,146.167 286.5,145.5C 288.448,143.211 290.448,140.878 292.5,138.5C 349.568,137.171 406.568,137.171 463.5,138.5 Z"/></g>
<g><path style="opacity:1" fill="#1a4172" d="M 449.5,232.5 C 449.167,232.5 448.833,232.5 448.5,232.5C 448.833,211.156 448.5,189.823 447.5,168.5C 402.679,169.169 357.846,169.836 313,170.5C 311.7,169.293 310.2,168.626 308.5,168.5C 308.592,189.842 308.259,211.175 307.5,232.5C 306.549,231.081 306.216,229.415 306.5,227.5C 306.5,207.5 306.5,187.5 306.5,167.5C 354.167,167.5 401.833,167.5 449.5,167.5C 449.5,189.167 449.5,210.833 449.5,232.5 Z"/></g>
<g><path style="opacity:1" fill="#527dc9" d="M 448.5,138.5 C 451.513,140.531 454.679,140.865 458,139.5C 458.317,141.301 458.984,141.634 460,140.5C 461.444,142.155 463.278,142.822 465.5,142.5C 465.372,144.655 465.872,146.655 467,148.5C 468.959,149.748 470.459,151.415 471.5,153.5C 468.557,156.18 468.89,156.847 472.5,155.5C 473.666,172.49 473.833,189.49 473,206.5C 472.667,207.833 472.333,209.167 472,210.5C 470.649,208.981 469.149,207.648 467.5,206.5C 465.72,208.444 463.553,209.777 461,210.5C 458.182,209.409 455.349,209.409 452.5,210.5C 452.407,196.825 452.741,183.325 453.5,170C 452.89,168.053 452.057,166.219 451,164.5C 450.902,156.423 450.235,148.423 449,140.5C 446.237,144.126 444.237,148.126 443,152.5C 442.685,155.372 442.185,158.205 441.5,161C 443.125,163.137 442.792,164.803 440.5,166C 420.5,166.167 400.5,166.333 380.5,166.5C 358.496,166.641 336.829,166.141 315.5,165C 314.691,159.583 314.191,154.083 314,148.5C 312.999,145.827 311.499,143.493 309.5,141.5C 354.094,140.846 398.928,140.18 444,139.5C 445.995,141.076 447.495,140.743 448.5,138.5 Z"/></g>
<g><path style="opacity:1" fill="#527ec9" d="M 302.5,139.5 C 303.15,139.804 303.817,140.137 304.5,140.5C 305.903,151.229 305.57,161.896 303.5,172.5C 304.668,184.674 304.668,197.008 303.5,209.5C 296.789,209.579 290.289,209.579 284,209.5C 283.798,192.979 283.298,176.479 282.5,160C 282.927,154.975 285.26,151.141 289.5,148.5C 290.167,146.833 290.833,145.167 291.5,143.5C 294.934,141.265 298.601,139.932 302.5,139.5 Z"/></g>
<g><path style="opacity:1" fill="#123d63" d="M 448.5,232.5 C 401.5,232.5 354.5,232.5 307.5,232.5C 308.259,211.175 308.592,189.842 308.5,168.5C 310.2,168.626 311.7,169.293 313,170.5C 357.846,169.836 402.679,169.169 447.5,168.5C 448.5,189.823 448.833,211.156 448.5,232.5 Z"/></g>
<g><path style="opacity:1" fill="#174b76" d="M 433.5,173.5 C 436.187,173.336 438.854,173.503 441.5,174C 442.893,175.171 443.727,176.671 444,178.5C 444.821,191.201 444.488,203.868 443,216.5C 441.282,220.983 438.116,223.649 433.5,224.5C 396.148,223.172 358.814,223.172 321.5,224.5C 319.382,223.054 317.049,222.387 314.5,222.5C 312.934,213.949 312.267,205.282 312.5,196.5C 312.667,189.833 312.833,183.167 313,176.5C 313.388,175.572 314.055,174.905 315,174.5C 352.675,174.233 390.508,174.567 428.5,175.5C 430.336,174.972 432.003,174.306 433.5,173.5 Z"/></g>
<g><path style="opacity:1" fill="#123d64" d="M 285.5,146.5 C 284.602,148.905 283.102,150.905 281,152.5C 280.5,179.165 280.333,205.831 280.5,232.5C 261.164,232.667 241.83,232.5 222.5,232C 223.669,229.993 224.335,227.827 224.5,225.5C 233.629,224.411 242.796,223.744 252,223.5C 256.55,223.528 261.05,223.861 265.5,224.5C 267.617,222.169 270.284,221.003 273.5,221C 273.167,220.667 272.833,220.333 272.5,220C 274.776,217.24 275.443,214.24 274.5,211C 275.294,195.854 275.794,180.688 276,165.5C 276.785,160.655 278.118,155.988 280,151.5C 281.076,148.921 282.909,147.254 285.5,146.5 Z"/></g>
<g><path style="opacity:0.411" fill="#2c5576" d="M 609.5,119.5 C 610.931,119.881 611.764,120.881 612,122.5C 612.882,127.179 613.715,131.846 614.5,136.5C 614.833,296.001 614.5,455.334 613.5,614.5C 613.667,455.166 613.5,295.833 613,136.5C 611.426,130.894 610.259,125.227 609.5,119.5 Z"/></g>
<g><path style="opacity:1" fill="#29577c" d="M 306.5,227.5 C 306.216,229.415 306.549,231.081 307.5,232.5C 354.5,232.5 401.5,232.5 448.5,232.5C 448.833,232.5 449.167,232.5 449.5,232.5C 449.5,232.833 449.5,233.167 449.5,233.5C 401.5,233.5 353.5,233.5 305.5,233.5C 305.205,231.265 305.539,229.265 306.5,227.5 Z"/></g>
<g><path style="opacity:1" fill="#7cafde" d="M 534.5,235.5 C 513.115,260.902 492.782,287.235 473.5,314.5C 470.472,316.194 468.139,318.528 466.5,321.5C 466.5,320.833 466.5,320.167 466.5,319.5C 468.021,316.25 469.688,312.917 471.5,309.5C 471.167,308.833 470.833,308.167 470.5,307.5C 469.604,308.506 468.938,308.506 468.5,307.5C 469.167,306.833 469.833,306.167 470.5,305.5C 469.205,303.672 468.205,301.672 467.5,299.5C 461.91,295.476 455.91,292.31 449.5,290C 448.085,286.249 445.585,283.416 442,281.5C 440.48,276.645 437.48,272.978 433,270.5C 432.517,269.552 432.351,268.552 432.5,267.5C 423.524,266.558 414.524,265.891 405.5,265.5C 405.685,260.42 403.351,257.087 398.5,255.5C 387.556,253.936 376.556,253.269 365.5,253.5C 365.66,255.199 365.494,256.866 365,258.5C 363.132,257.328 361.298,257.495 359.5,259C 355.48,265.397 349.813,267.563 342.5,265.5C 337.863,266.22 333.197,266.72 328.5,267C 326.359,270.575 324.693,274.409 323.5,278.5C 318.004,279.252 312.671,280.585 307.5,282.5C 306.914,282.291 306.414,281.957 306,281.5C 303.955,285.602 302.455,289.935 301.5,294.5C 296.491,299.671 290.991,304.337 285,308.5C 281.714,313.941 278.714,319.607 276,325.5C 275.085,324.672 274.419,323.672 274,322.5C 272.182,327.848 271.016,333.348 270.5,339C 270.645,339.772 270.978,340.439 271.5,341C 270.204,343.761 269.037,346.595 268,349.5C 261.137,354.401 258.97,360.901 261.5,369C 260.504,372.633 259.504,376.299 258.5,380C 258.833,381 259.167,382 259.5,383C 258.922,392.388 257.422,401.555 255,410.5C 254.5,417.492 254.334,424.492 254.5,431.5C 255.5,431.5 256.5,431.5 257.5,431.5C 258.63,438.119 259.63,444.786 260.5,451.5C 259.169,455.019 259.836,458.186 262.5,461C 261.971,462.559 261.304,464.059 260.5,465.5C 261.689,466.429 263.022,466.762 264.5,466.5C 264.338,468.527 264.505,470.527 265,472.5C 266.512,473.257 267.846,474.257 269,475.5C 269.508,484.573 271.508,493.239 275,501.5C 276.356,502.38 277.856,502.714 279.5,502.5C 281.465,506.004 283.298,509.67 285,513.5C 286.8,515.317 288.966,516.484 291.5,517C 294.783,519.544 295.95,522.71 295,526.5C 296.586,527.376 298.086,528.376 299.5,529.5C 300.736,528.754 302.07,528.421 303.5,528.5C 302.833,530.167 302.167,531.833 301.5,533.5C 297.86,538.323 294.36,543.323 291,548.5C 282.721,557.039 275.388,566.373 269,576.5C 265.633,578.257 263.466,580.923 262.5,584.5C 261.5,584.5 260.5,584.5 259.5,584.5C 250.851,599.058 240.684,612.724 229,625.5C 222.102,635.736 214.436,645.403 206,654.5C 205.138,656.087 204.471,657.754 204,659.5C 200.658,662.509 197.658,665.843 195,669.5C 194.501,664.511 194.334,659.511 194.5,654.5C 194.46,646.813 194.793,639.146 195.5,631.5C 199.915,587.083 202.915,542.416 204.5,497.5C 204.943,477.153 205.776,456.82 207,436.5C 211.327,383.217 214.827,329.883 217.5,276.5C 218.26,268.645 218.927,260.645 219.5,252.5C 220.296,246.65 220.963,240.65 221.5,234.5C 326.001,234.167 430.335,234.501 534.5,235.5 Z"/></g>
<g><path style="opacity:1" fill="#6b99d4" d="M 534.5,235.5 C 534.51,246.192 534.177,256.859 533.5,267.5C 534.743,269.691 535.576,272.024 536,274.5C 536.95,285.66 537.783,296.827 538.5,308C 535.962,315.688 535.962,323.355 538.5,331C 538.415,332.107 538.081,333.107 537.5,334C 538.993,340.484 540.493,346.984 542,353.5C 542.669,368.366 543.836,383.033 545.5,397.5C 551.212,476.764 556.212,556.097 560.5,635.5C 561.365,647.154 562.032,658.821 562.5,670.5C 439.5,670.5 316.5,670.5 193.5,670.5C 193.5,666.167 193.5,661.833 193.5,657.5C 193.263,656.209 193.596,655.209 194.5,654.5C 194.334,659.511 194.501,664.511 195,669.5C 197.658,665.843 200.658,662.509 204,659.5C 204.471,657.754 205.138,656.087 206,654.5C 214.436,645.403 222.102,635.736 229,625.5C 240.684,612.724 250.851,599.058 259.5,584.5C 260.5,584.5 261.5,584.5 262.5,584.5C 263.466,580.923 265.633,578.257 269,576.5C 275.388,566.373 282.721,557.039 291,548.5C 294.36,543.323 297.86,538.323 301.5,533.5C 303.733,534.315 305.733,533.648 307.5,531.5C 308.521,533.619 310.021,535.286 312,536.5C 313.153,534.503 314.653,534.17 316.5,535.5C 323.143,540.626 329.977,545.626 337,550.5C 341.144,551.207 344.644,553.04 347.5,556C 350.095,556.226 352.595,556.726 355,557.5C 359.469,556.441 363.635,557.275 367.5,560C 374.202,559.585 380.869,559.752 387.5,560.5C 392.151,559.884 396.818,559.218 401.5,558.5C 408.261,552.468 416.261,549.802 425.5,550.5C 425.286,548.856 425.62,547.356 426.5,546C 432.174,543.658 437.341,540.492 442,536.5C 443.183,537.731 444.349,537.731 445.5,536.5C 443.441,535.049 442.441,533.049 442.5,530.5C 449.164,532.082 454.498,529.915 458.5,524C 457.044,523.577 456.544,522.744 457,521.5C 458.11,519.963 459.61,519.297 461.5,519.5C 462.055,515.44 464.055,512.273 467.5,510C 466.833,509.667 466.167,509.333 465.5,509C 467.228,506.418 469.561,504.918 472.5,504.5C 472.972,501.185 474.805,498.851 478,497.5C 478.333,495.167 478.667,492.833 479,490.5C 481,489.833 483,489.167 485,488.5C 485.37,485.662 485.203,482.829 484.5,480C 486.194,474.628 487.36,469.128 488,463.5C 489.011,462.663 490.178,462.33 491.5,462.5C 492.86,459.38 493.693,456.047 494,452.5C 495.044,453.623 495.71,454.956 496,456.5C 496.339,454.166 496.172,451.832 495.5,449.5C 499.826,428.213 500.16,407.213 496.5,386.5C 498.461,385.152 498.628,383.819 497,382.5C 496.115,375.738 494.782,369.071 493,362.5C 491.978,361.646 491.145,360.646 490.5,359.5C 488.994,358.253 487.494,358.253 486,359.5C 484.354,358.059 484.187,356.392 485.5,354.5C 485.06,352.235 484.394,350.068 483.5,348C 484.357,347.311 485.023,346.478 485.5,345.5C 484.253,343.958 484.253,342.458 485.5,341C 483.18,334.616 480.013,328.783 476,323.5C 475.349,321.765 475.515,320.098 476.5,318.5C 475.271,317.719 473.938,317.219 472.5,317C 473.252,316.329 473.586,315.496 473.5,314.5C 492.782,287.235 513.115,260.902 534.5,235.5 Z"/></g>
<g><path style="opacity:1" fill="#78a9d6" d="M 466.5,319.5 C 465.073,317.852 464.24,315.852 464,313.5C 462.701,313.966 461.201,313.966 459.5,313.5C 460.332,309.503 458.832,306.836 455,305.5C 453.414,302.659 451.58,299.993 449.5,297.5C 445.936,295.37 442.27,293.537 438.5,292C 441.215,291.125 442.548,289.292 442.5,286.5C 438.59,286.737 434.923,285.904 431.5,284C 423.3,279.582 415.3,275.082 407.5,270.5C 405.304,272.548 402.971,272.381 400.5,270C 393.915,267.412 387.248,267.079 380.5,269C 381.833,269.333 383.167,269.667 384.5,270C 384.167,270.333 383.833,270.667 383.5,271C 374.812,271.745 366.145,271.579 357.5,270.5C 351.232,271.468 345.232,273.301 339.5,276C 335.752,277.58 332.752,280.08 330.5,283.5C 327.833,284.167 325.167,284.833 322.5,285.5C 321.597,287.857 319.93,289.357 317.5,290C 317.833,290.333 318.167,290.667 318.5,291C 316.114,291.284 315.448,292.284 316.5,294C 314.668,294.748 313.001,295.748 311.5,297C 311.5,298 311.5,299 311.5,300C 309.892,300.658 308.725,300.158 308,298.5C 307.25,299.126 306.416,299.626 305.5,300C 307.107,301.049 307.773,302.549 307.5,304.5C 309.91,304.079 311.743,302.746 313,300.5C 313.5,301 314,301.5 314.5,302C 312.606,303.101 311.939,304.434 312.5,306C 310.616,306.216 308.949,306.883 307.5,308C 308.333,310.081 308.333,312.248 307.5,314.5C 305.876,314.64 304.71,313.973 304,312.5C 303.357,315.72 301.524,317.887 298.5,319C 298.833,319.333 299.167,319.667 299.5,320C 297.98,321.885 296.98,324.051 296.5,326.5C 292.838,326.829 290.838,328.829 290.5,332.5C 289.675,333.386 288.675,333.719 287.5,333.5C 287.928,336.564 288.594,339.564 289.5,342.5C 286.843,342.162 284.51,342.829 282.5,344.5C 280.071,348.786 278.904,353.453 279,358.5C 276.398,361.897 273.898,365.397 271.5,369C 273.961,373.186 273.295,377.02 269.5,380.5C 270.728,384.64 270.728,388.807 269.5,393C 269.615,394.895 270.282,396.562 271.5,398C 271.004,399.996 270.004,401.663 268.5,403C 269.43,404.194 270.097,405.527 270.5,407C 269.978,418.377 269.978,429.877 270.5,441.5C 272.02,446.694 272.853,452.027 273,457.5C 273.75,458.126 274.584,458.626 275.5,459C 272.833,460.333 272.833,461.667 275.5,463C 274.359,463.741 274.359,464.575 275.5,465.5C 274.311,466.429 272.978,466.762 271.5,466.5C 271.387,469.049 272.054,471.382 273.5,473.5C 272.617,475.743 273.451,477.41 276,478.5C 277.634,487.683 281.134,495.35 286.5,501.5C 287.425,500.359 288.259,500.359 289,501.5C 289.478,504.205 290.311,506.205 291.5,507.5C 292.833,507.5 294.167,507.5 295.5,507.5C 295.5,508.833 295.5,510.167 295.5,511.5C 298.598,512.737 300.931,514.903 302.5,518C 303.996,518.507 305.163,518.007 306,516.5C 307.264,518.607 309.097,519.607 311.5,519.5C 311.5,520.167 311.5,520.833 311.5,521.5C 308.21,523.124 305.543,525.457 303.5,528.5C 302.07,528.421 300.736,528.754 299.5,529.5C 298.086,528.376 296.586,527.376 295,526.5C 295.95,522.71 294.783,519.544 291.5,517C 288.966,516.484 286.8,515.317 285,513.5C 283.298,509.67 281.465,506.004 279.5,502.5C 277.856,502.714 276.356,502.38 275,501.5C 271.508,493.239 269.508,484.573 269,475.5C 267.846,474.257 266.512,473.257 265,472.5C 264.505,470.527 264.338,468.527 264.5,466.5C 263.022,466.762 261.689,466.429 260.5,465.5C 261.304,464.059 261.971,462.559 262.5,461C 259.836,458.186 259.169,455.019 260.5,451.5C 259.63,444.786 258.63,438.119 257.5,431.5C 256.5,431.5 255.5,431.5 254.5,431.5C 254.334,424.492 254.5,417.492 255,410.5C 257.422,401.555 258.922,392.388 259.5,383C 259.167,382 258.833,381 258.5,380C 259.504,376.299 260.504,372.633 261.5,369C 258.97,360.901 261.137,354.401 268,349.5C 269.037,346.595 270.204,343.761 271.5,341C 270.978,340.439 270.645,339.772 270.5,339C 271.016,333.348 272.182,327.848 274,322.5C 274.419,323.672 275.085,324.672 276,325.5C 278.714,319.607 281.714,313.941 285,308.5C 290.991,304.337 296.491,299.671 301.5,294.5C 302.455,289.935 303.955,285.602 306,281.5C 306.414,281.957 306.914,282.291 307.5,282.5C 312.671,280.585 318.004,279.252 323.5,278.5C 324.693,274.409 326.359,270.575 328.5,267C 333.197,266.72 337.863,266.22 342.5,265.5C 349.813,267.563 355.48,265.397 359.5,259C 361.298,257.495 363.132,257.328 365,258.5C 365.494,256.866 365.66,255.199 365.5,253.5C 376.556,253.269 387.556,253.936 398.5,255.5C 403.351,257.087 405.685,260.42 405.5,265.5C 414.524,265.891 423.524,266.558 432.5,267.5C 432.351,268.552 432.517,269.552 433,270.5C 437.48,272.978 440.48,276.645 442,281.5C 445.585,283.416 448.085,286.249 449.5,290C 455.91,292.31 461.91,295.476 467.5,299.5C 468.205,301.672 469.205,303.672 470.5,305.5C 469.833,306.167 469.167,306.833 468.5,307.5C 468.938,308.506 469.604,308.506 470.5,307.5C 470.833,308.167 471.167,308.833 471.5,309.5C 469.688,312.917 468.021,316.25 466.5,319.5 Z"/></g>
<g><path style="opacity:1" fill="#76a3cc" d="M 466.5,319.5 C 466.5,320.167 466.5,320.833 466.5,321.5C 463.544,323.788 461.877,326.788 461.5,330.5C 448.64,311.483 431.64,297.316 410.5,288C 378.676,276.898 349.342,281.564 322.5,302C 295.242,326.013 279.742,356.18 276,392.5C 272.005,431.255 280.672,466.589 302,498.5C 306.294,504.627 311.127,510.294 316.5,515.5C 314.427,516.3 312.76,517.633 311.5,519.5C 309.097,519.607 307.264,518.607 306,516.5C 305.163,518.007 303.996,518.507 302.5,518C 300.931,514.903 298.598,512.737 295.5,511.5C 295.5,510.167 295.5,508.833 295.5,507.5C 294.167,507.5 292.833,507.5 291.5,507.5C 290.311,506.205 289.478,504.205 289,501.5C 288.259,500.359 287.425,500.359 286.5,501.5C 281.134,495.35 277.634,487.683 276,478.5C 273.451,477.41 272.617,475.743 273.5,473.5C 272.054,471.382 271.387,469.049 271.5,466.5C 272.978,466.762 274.311,466.429 275.5,465.5C 274.359,464.575 274.359,463.741 275.5,463C 272.833,461.667 272.833,460.333 275.5,459C 274.584,458.626 273.75,458.126 273,457.5C 272.853,452.027 272.02,446.694 270.5,441.5C 269.978,429.877 269.978,418.377 270.5,407C 270.097,405.527 269.43,404.194 268.5,403C 270.004,401.663 271.004,399.996 271.5,398C 270.282,396.562 269.615,394.895 269.5,393C 270.728,388.807 270.728,384.64 269.5,380.5C 273.295,377.02 273.961,373.186 271.5,369C 273.898,365.397 276.398,361.897 279,358.5C 278.904,353.453 280.071,348.786 282.5,344.5C 284.51,342.829 286.843,342.162 289.5,342.5C 288.594,339.564 287.928,336.564 287.5,333.5C 288.675,333.719 289.675,333.386 290.5,332.5C 290.838,328.829 292.838,326.829 296.5,326.5C 296.98,324.051 297.98,321.885 299.5,320C 299.167,319.667 298.833,319.333 298.5,319C 301.524,317.887 303.357,315.72 304,312.5C 304.71,313.973 305.876,314.64 307.5,314.5C 308.333,312.248 308.333,310.081 307.5,308C 308.949,306.883 310.616,306.216 312.5,306C 311.939,304.434 312.606,303.101 314.5,302C 314,301.5 313.5,301 313,300.5C 311.743,302.746 309.91,304.079 307.5,304.5C 307.773,302.549 307.107,301.049 305.5,300C 306.416,299.626 307.25,299.126 308,298.5C 308.725,300.158 309.892,300.658 311.5,300C 311.5,299 311.5,298 311.5,297C 313.001,295.748 314.668,294.748 316.5,294C 315.448,292.284 316.114,291.284 318.5,291C 318.167,290.667 317.833,290.333 317.5,290C 319.93,289.357 321.597,287.857 322.5,285.5C 325.167,284.833 327.833,284.167 330.5,283.5C 332.752,280.08 335.752,277.58 339.5,276C 345.232,273.301 351.232,271.468 357.5,270.5C 366.145,271.579 374.812,271.745 383.5,271C 383.833,270.667 384.167,270.333 384.5,270C 383.167,269.667 381.833,269.333 380.5,269C 387.248,267.079 393.915,267.412 400.5,270C 402.971,272.381 405.304,272.548 407.5,270.5C 415.3,275.082 423.3,279.582 431.5,284C 434.923,285.904 438.59,286.737 442.5,286.5C 442.548,289.292 441.215,291.125 438.5,292C 442.27,293.537 445.936,295.37 449.5,297.5C 451.58,299.993 453.414,302.659 455,305.5C 458.832,306.836 460.332,309.503 459.5,313.5C 461.201,313.966 462.701,313.966 464,313.5C 464.24,315.852 465.073,317.852 466.5,319.5 Z"/></g>
<g><path style="opacity:1" fill="#fcfdfc" d="M 461.5,330.5 C 483.912,368.647 489.412,409.314 478,452.5C 469.943,483.388 452.777,508.221 426.5,527C 387.057,548.447 350.39,544.613 316.5,515.5C 311.127,510.294 306.294,504.627 302,498.5C 280.672,466.589 272.005,431.255 276,392.5C 279.742,356.18 295.242,326.013 322.5,302C 349.342,281.564 378.676,276.898 410.5,288C 431.64,297.316 448.64,311.483 461.5,330.5 Z"/></g>
<g><path style="opacity:0.055" fill="#9baaca" d="M 142.5,132.5 C 142.5,133.167 142.5,133.833 142.5,134.5C 141.776,136.218 141.109,138.052 140.5,140C 141.166,298.264 141.833,456.431 142.5,614.5C 143.872,623.658 146.039,632.658 149,641.5C 153.23,648.12 158.063,654.287 163.5,660C 166.865,662.682 170.531,664.849 174.5,666.5C 174.833,667.167 175.167,667.833 175.5,668.5C 171.866,667.708 168.533,666.208 165.5,664C 151.8,653.764 143.3,640.264 140,623.5C 139.174,460.15 139.34,296.816 140.5,133.5C 141.167,133.167 141.833,132.833 142.5,132.5 Z"/></g>
<g><path style="opacity:1" fill="#6492c4" d="M 281.5,233.5 C 289.5,233.5 297.5,233.5 305.5,233.5C 353.5,233.5 401.5,233.5 449.5,233.5C 458.167,233.5 466.833,233.5 475.5,233.5C 495.833,233.5 516.167,233.5 536.5,233.5C 539.153,288.188 542.153,342.854 545.5,397.5C 543.836,383.033 542.669,368.366 542,353.5C 540.493,346.984 538.993,340.484 537.5,334C 538.081,333.107 538.415,332.107 538.5,331C 535.962,323.355 535.962,315.688 538.5,308C 537.783,296.827 536.95,285.66 536,274.5C 535.576,272.024 534.743,269.691 533.5,267.5C 534.177,256.859 534.51,246.192 534.5,235.5C 430.335,234.501 326.001,234.167 221.5,234.5C 220.963,240.65 220.296,246.65 219.5,252.5C 219.5,246.167 219.5,239.833 219.5,233.5C 240.167,233.5 260.833,233.5 281.5,233.5 Z"/></g>
<g><path style="opacity:1" fill="#14446c" d="M 217.5,276.5 C 214.827,329.883 211.327,383.217 207,436.5C 205.776,456.82 204.943,477.153 204.5,497.5C 203.671,503.353 202.838,509.353 202,515.5C 199.756,554.169 197.589,592.836 195.5,631.5C 194.793,639.146 194.46,646.813 194.5,654.5C 193.596,655.209 193.263,656.209 193.5,657.5C 192.523,660.287 192.19,663.287 192.5,666.5C 189.742,666.024 188.075,664.357 187.5,661.5C 188.603,649.349 189.603,637.182 190.5,625C 187.146,608.551 187.479,592.218 191.5,576C 190.739,562.268 191.739,548.434 194.5,534.5C 194.172,530.489 193.838,526.489 193.5,522.5C 194.615,503.665 196.115,484.998 198,466.5C 198.194,457.452 198.694,448.452 199.5,439.5C 198.978,438.393 198.645,437.226 198.5,436C 199.461,433.41 200.128,430.743 200.5,428C 198.993,422.717 199.326,417.55 201.5,412.5C 201.167,411.167 200.833,409.833 200.5,408.5C 201.272,400.528 201.772,392.528 202,384.5C 203.336,376.338 204.836,368.171 206.5,360C 206.186,354.75 205.186,349.417 203.5,344C 207.14,333.216 208.14,322.216 206.5,311C 207.249,309.266 207.749,307.433 208,305.5C 208.425,293.486 209.092,281.486 210,269.5C 212.569,263.167 213.069,256.667 211.5,250C 212.424,248.189 213.257,248.355 214,250.5C 215.656,247.947 215.823,245.281 214.5,242.5C 215.675,242.281 216.675,242.614 217.5,243.5C 217.114,254.446 217.114,265.446 217.5,276.5 Z"/></g>
<g><path style="opacity:1" fill="#efdda9" d="M 399.5,327.5 C 397.821,327.285 396.821,327.952 396.5,329.5C 389.902,324.762 382.569,321.596 374.5,320C 374.043,319.586 373.709,319.086 373.5,318.5C 376.845,317.441 380.178,317.608 383.5,319C 387.271,321.219 391.271,322.885 395.5,324C 397.093,324.949 398.426,326.115 399.5,327.5 Z"/></g>
<g><path style="opacity:0.012" fill="#aafefe" d="M 615.5,327.5 C 615.5,327.167 615.5,326.833 615.5,326.5C 616.167,326.5 616.833,326.5 617.5,326.5C 617.5,419.833 617.5,513.167 617.5,606.5C 616.833,513.5 616.167,420.5 615.5,327.5 Z"/></g>
<g><path style="opacity:1" fill="#fffcd1" d="M 393.5,345.5 C 377.053,334.245 360.053,333.579 342.5,343.5C 345.546,339.648 349.546,337.148 354.5,336C 362.702,335.789 370.869,335.289 379,334.5C 383.932,338.048 388.765,341.715 393.5,345.5 Z"/></g>
<g><path style="opacity:1" fill="#f5e23e" d="M 393.5,345.5 C 394.552,345.351 395.552,345.517 396.5,346C 398.667,349.333 401.334,352.166 404.5,354.5C 410.612,362.809 414.612,372.142 416.5,382.5C 418.802,397.902 415.969,412.235 408,425.5C 402.611,433.798 395.111,436.465 385.5,433.5C 383.615,431.947 382.615,429.947 382.5,427.5C 382.833,427.5 383.167,427.5 383.5,427.5C 385.417,429.745 387.75,430.078 390.5,428.5C 390.833,428.667 391.167,428.833 391.5,429C 390.672,429.915 389.672,430.581 388.5,431C 392.776,432.528 397.109,432.528 401.5,431C 407.929,424.438 411.595,416.604 412.5,407.5C 410.297,407.604 408.297,408.27 406.5,409.5C 406.5,408.833 406.5,408.167 406.5,407.5C 408.41,406.025 409.576,404.025 410,401.5C 413.033,380.248 406.533,362.582 390.5,348.5C 381.145,342.081 370.811,339.914 359.5,342C 356.896,342.39 354.562,343.224 352.5,344.5C 346.686,346.623 341.353,349.623 336.5,353.5C 331.579,361.256 326.079,368.59 320,375.5C 317.885,379.957 316.385,384.624 315.5,389.5C 313.181,396.076 310.847,402.743 308.5,409.5C 307.507,404.88 307.173,400.214 307.5,395.5C 311.961,377.586 320.628,362.086 333.5,349C 336.528,347.156 339.528,345.322 342.5,343.5C 360.053,333.579 377.053,334.245 393.5,345.5 Z"/></g>
<g><path style="opacity:1" fill="#fef9dd" d="M 408.5,340.5 C 411.136,343.31 413.636,346.31 416,349.5C 422.549,361.202 426.049,373.702 426.5,387C 426.119,394.841 425.619,402.674 425,410.5C 424.262,413.501 423.096,416.168 421.5,418.5C 421.334,413.821 421.501,409.155 422,404.5C 422.915,403.672 423.581,402.672 424,401.5C 426.492,386.627 423.992,372.96 416.5,360.5C 411.916,358.972 410.416,360.638 412,365.5C 417.053,370.005 418.886,375.671 417.5,382.5C 417.167,382.5 416.833,382.5 416.5,382.5C 414.612,372.142 410.612,362.809 404.5,354.5C 406.117,355.038 407.784,355.371 409.5,355.5C 409.343,356.873 409.51,358.207 410,359.5C 412.231,358.034 413.731,356.034 414.5,353.5C 413.184,350.205 411.351,347.205 409,344.5C 408.51,343.207 408.343,341.873 408.5,340.5 Z"/></g>
<g><path style="opacity:1" fill="#6e80c9" d="M 442.5,361.5 C 441.249,359.618 440.082,357.618 439,355.5C 438.826,360.684 438.326,365.684 437.5,370.5C 437.171,364.463 437.504,358.463 438.5,352.5C 441.199,354.898 442.533,357.898 442.5,361.5 Z"/></g>
<g><path style="opacity:1" fill="#f1f9b6" d="M 406.5,407.5 C 410.344,389.215 406.844,372.548 396,357.5C 392.926,354.714 389.759,352.048 386.5,349.5C 386.167,349.833 385.833,350.167 385.5,350.5C 386.193,351.518 386.859,352.518 387.5,353.5C 383.782,350.121 379.782,346.954 375.5,344C 367.826,343.596 360.159,343.762 352.5,344.5C 354.562,343.224 356.896,342.39 359.5,342C 370.811,339.914 381.145,342.081 390.5,348.5C 406.533,362.582 413.033,380.248 410,401.5C 409.576,404.025 408.41,406.025 406.5,407.5 Z"/></g>
<g><path style="opacity:1" fill="#6592ca" d="M 473.5,314.5 C 473.586,315.496 473.252,316.329 472.5,317C 473.938,317.219 475.271,317.719 476.5,318.5C 475.515,320.098 475.349,321.765 476,323.5C 480.013,328.783 483.18,334.616 485.5,341C 484.253,342.458 484.253,343.958 485.5,345.5C 485.023,346.478 484.357,347.311 483.5,348C 484.394,350.068 485.06,352.235 485.5,354.5C 484.187,356.392 484.354,358.059 486,359.5C 487.494,358.253 488.994,358.253 490.5,359.5C 491.145,360.646 491.978,361.646 493,362.5C 494.782,369.071 496.115,375.738 497,382.5C 498.628,383.819 498.461,385.152 496.5,386.5C 500.16,407.213 499.826,428.213 495.5,449.5C 496.172,451.832 496.339,454.166 496,456.5C 495.71,454.956 495.044,453.623 494,452.5C 493.693,456.047 492.86,459.38 491.5,462.5C 490.178,462.33 489.011,462.663 488,463.5C 487.36,469.128 486.194,474.628 484.5,480C 485.203,482.829 485.37,485.662 485,488.5C 483,489.167 481,489.833 479,490.5C 478.667,492.833 478.333,495.167 478,497.5C 474.805,498.851 472.972,501.185 472.5,504.5C 469.561,504.918 467.228,506.418 465.5,509C 466.167,509.333 466.833,509.667 467.5,510C 464.055,512.273 462.055,515.44 461.5,519.5C 459.61,519.297 458.11,519.963 457,521.5C 456.544,522.744 457.044,523.577 458.5,524C 454.498,529.915 449.164,532.082 442.5,530.5C 442.441,533.049 443.441,535.049 445.5,536.5C 444.349,537.731 443.183,537.731 442,536.5C 437.341,540.492 432.174,543.658 426.5,546C 425.62,547.356 425.286,548.856 425.5,550.5C 416.261,549.802 408.261,552.468 401.5,558.5C 396.818,559.218 392.151,559.884 387.5,560.5C 380.869,559.752 374.202,559.585 367.5,560C 363.635,557.275 359.469,556.441 355,557.5C 352.595,556.726 350.095,556.226 347.5,556C 344.644,553.04 341.144,551.207 337,550.5C 329.977,545.626 323.143,540.626 316.5,535.5C 314.653,534.17 313.153,534.503 312,536.5C 310.021,535.286 308.521,533.619 307.5,531.5C 305.733,533.648 303.733,534.315 301.5,533.5C 302.167,531.833 302.833,530.167 303.5,528.5C 305.543,525.457 308.21,523.124 311.5,521.5C 313.213,522.635 313.88,524.302 313.5,526.5C 317.622,526.733 320.622,528.733 322.5,532.5C 331.783,537.058 340.949,541.724 350,546.5C 350.893,545.919 351.893,545.585 353,545.5C 364.524,546.135 376.024,546.801 387.5,547.5C 390.627,546.875 393.627,545.875 396.5,544.5C 398.539,545.277 399.205,546.443 398.5,548C 393.731,548.869 389.064,549.869 384.5,551C 388.833,551.667 393.167,551.667 397.5,551C 398.333,550.167 399.167,549.333 400,548.5C 403.758,550.473 405.925,549.473 406.5,545.5C 411.714,544.352 416.714,542.518 421.5,540C 423.167,539 424.5,537.667 425.5,536C 421.81,535.576 421.643,534.742 425,533.5C 428.785,536.287 432.285,535.953 435.5,532.5C 434.311,531.571 432.978,531.238 431.5,531.5C 431.687,529.436 432.187,527.436 433,525.5C 438.333,521.5 443.667,517.5 449,513.5C 449.333,511.833 449.667,510.167 450,508.5C 454.018,505.479 457.684,502.146 461,498.5C 462.302,493.292 465.135,489.292 469.5,486.5C 470.79,482.106 472.29,477.773 474,473.5C 474.495,471.527 474.662,469.527 474.5,467.5C 476.484,467.383 478.15,468.05 479.5,469.5C 480.627,467.731 480.127,466.397 478,465.5C 477.333,463.167 477.333,460.833 478,458.5C 479.016,459.634 479.683,459.301 480,457.5C 480.333,459.167 480.667,460.833 481,462.5C 482.979,459.659 484.812,456.659 486.5,453.5C 486.054,451.632 485.721,449.799 485.5,448C 486.047,447.075 486.713,446.242 487.5,445.5C 488.195,437.131 489.862,428.964 492.5,421C 492.021,410.093 491.021,399.26 489.5,388.5C 489.709,387.914 490.043,387.414 490.5,387C 488.976,382.859 487.31,378.859 485.5,375C 487.742,369.029 486.409,364.863 481.5,362.5C 480.93,357.03 478.93,352.197 475.5,348C 475.872,345.675 477.205,343.509 479.5,341.5C 475.422,340.923 473.256,338.59 473,334.5C 472.667,334.833 472.333,335.167 472,335.5C 469.559,331.066 467.726,326.4 466.5,321.5C 468.139,318.528 470.472,316.194 473.5,314.5 Z"/></g>
<g><path style="opacity:1" fill="#fdfcf9" d="M 421.5,418.5 C 420.609,419.11 419.609,419.443 418.5,419.5C 419.069,415.671 418.402,412.337 416.5,409.5C 418.689,400.574 419.022,391.574 417.5,382.5C 418.886,375.671 417.053,370.005 412,365.5C 410.416,360.638 411.916,358.972 416.5,360.5C 423.992,372.96 426.492,386.627 424,401.5C 423.581,402.672 422.915,403.672 422,404.5C 421.501,409.155 421.334,413.821 421.5,418.5 Z"/></g>
<g><path style="opacity:1" fill="#a7dce5" d="M 352.5,358.5 C 360.238,358.144 367.905,358.644 375.5,360C 378.965,362.463 382.131,365.296 385,368.5C 385.825,372.336 384.325,373.836 380.5,373C 375.666,369.748 370.666,366.748 365.5,364C 360.833,363.333 356.167,363.333 351.5,364C 340.525,368.968 332.025,376.801 326,387.5C 325.709,385.217 326.209,383.05 327.5,381C 330.593,376.233 334.093,371.733 338,367.5C 342.517,363.782 347.35,360.782 352.5,358.5 Z"/></g>
<g><path style="opacity:1" fill="#88d36b" d="M 406.5,407.5 C 406.5,408.167 406.5,408.833 406.5,409.5C 404.871,411.06 403.704,410.727 403,408.5C 401.951,410.618 400.451,412.284 398.5,413.5C 398.557,412.391 398.89,411.391 399.5,410.5C 404.469,400.704 405.635,390.371 403,379.5C 401.124,374.474 399.124,369.474 397,364.5C 393.826,360.802 390.659,357.135 387.5,353.5C 386.859,352.518 386.193,351.518 385.5,350.5C 385.833,350.167 386.167,349.833 386.5,349.5C 389.759,352.048 392.926,354.714 396,357.5C 406.844,372.548 410.344,389.215 406.5,407.5 Z"/></g>
<g><path style="opacity:1" fill="#edce83" d="M 399.5,327.5 C 415.086,338.973 424.919,354.306 429,373.5C 429.821,386.201 429.488,398.868 428,411.5C 425.924,417.06 424.257,422.727 423,428.5C 422.617,429.056 422.117,429.389 421.5,429.5C 422.368,426.327 422.368,423.327 421.5,420.5C 420.209,420.737 419.209,420.404 418.5,419.5C 419.609,419.443 420.609,419.11 421.5,418.5C 423.096,416.168 424.262,413.501 425,410.5C 425.619,402.674 426.119,394.841 426.5,387C 426.049,373.702 422.549,361.202 416,349.5C 413.636,346.31 411.136,343.31 408.5,340.5C 404.474,336.805 400.474,333.138 396.5,329.5C 396.821,327.952 397.821,327.285 399.5,327.5 Z"/></g>
<g><path style="opacity:1" fill="#f6f1a2" d="M 315.5,389.5 C 314.362,396.692 312.529,403.692 310,410.5C 309.667,415.5 309.333,420.5 309,425.5C 307.989,426.337 306.822,426.67 305.5,426.5C 305.113,415.946 305.78,405.613 307.5,395.5C 307.173,400.214 307.507,404.88 308.5,409.5C 310.847,402.743 313.181,396.076 315.5,389.5 Z"/></g>
<g><path style="opacity:1" fill="#ed6f67" d="M 375.5,403.5 C 373.61,403.297 372.11,403.963 371,405.5C 367.426,414.981 367.759,424.314 372,433.5C 373.961,436.135 376.461,437.969 379.5,439C 388.354,440.597 396.687,439.264 404.5,435C 406.389,432.618 408.055,430.118 409.5,427.5C 412.379,421.736 414.713,415.736 416.5,409.5C 418.402,412.337 419.069,415.671 418.5,419.5C 419.209,420.404 420.209,420.737 421.5,420.5C 417.446,435.386 408.113,445.22 393.5,450C 380.147,453.502 370.147,449.336 363.5,437.5C 362.932,434.548 361.766,431.881 360,429.5C 359.355,420.801 359.688,412.135 361,403.5C 362.5,401.333 364.333,399.5 366.5,398C 369.167,397.333 371.833,397.333 374.5,398C 375.406,399.699 375.739,401.533 375.5,403.5 Z"/></g>
<g><path style="opacity:1" fill="#fdf0ba" d="M 416.5,382.5 C 416.833,382.5 417.167,382.5 417.5,382.5C 419.022,391.574 418.689,400.574 416.5,409.5C 414.713,415.736 412.379,421.736 409.5,427.5C 403.84,434.443 396.507,436.943 387.5,435C 386.584,434.722 385.918,434.222 385.5,433.5C 395.111,436.465 402.611,433.798 408,425.5C 415.969,412.235 418.802,397.902 416.5,382.5 Z"/></g>
<g><path style="opacity:1" fill="#4b68dd" d="M 442.5,361.5 C 447.312,384.439 446.145,407.106 439,429.5C 431.401,441.933 421.568,452.266 409.5,460.5C 409.167,460 408.833,459.5 408.5,459C 424.83,443.414 434.33,424.247 437,401.5C 437.261,391.099 437.428,380.766 437.5,370.5C 438.326,365.684 438.826,360.684 439,355.5C 440.082,357.618 441.249,359.618 442.5,361.5 Z"/></g>
<g><path style="opacity:1" fill="#b0e79b" d="M 399.5,410.5 C 398.89,411.391 398.557,412.391 398.5,413.5C 394.671,416.277 390.338,417.777 385.5,418C 382.814,420.546 381.814,423.713 382.5,427.5C 380.417,418.73 384.084,414.564 393.5,415C 395.702,413.612 397.702,412.112 399.5,410.5 Z"/></g>
<g><path style="opacity:1" fill="#6bd733" d="M 406.5,409.5 C 406.108,411.179 405.608,412.846 405,414.5C 402.365,416.461 400.531,418.961 399.5,422C 395.056,426.387 389.722,428.221 383.5,427.5C 383.167,427.5 382.833,427.5 382.5,427.5C 381.814,423.713 382.814,420.546 385.5,418C 390.338,417.777 394.671,416.277 398.5,413.5C 400.451,412.284 401.951,410.618 403,408.5C 403.704,410.727 404.871,411.06 406.5,409.5 Z"/></g>
<g><path style="opacity:1" fill="#f4e214" d="M 383.5,427.5 C 389.722,428.221 395.056,426.387 399.5,422C 400.531,418.961 402.365,416.461 405,414.5C 405.608,412.846 406.108,411.179 406.5,409.5C 408.297,408.27 410.297,407.604 412.5,407.5C 411.595,416.604 407.929,424.438 401.5,431C 397.109,432.528 392.776,432.528 388.5,431C 389.672,430.581 390.672,429.915 391.5,429C 391.167,428.833 390.833,428.667 390.5,428.5C 387.75,430.078 385.417,429.745 383.5,427.5 Z"/></g>
<g><path style="opacity:1" fill="#fac151" d="M 375.5,403.5 C 375.739,401.533 375.406,399.699 374.5,398C 371.833,397.333 369.167,397.333 366.5,398C 364.333,399.5 362.5,401.333 361,403.5C 359.688,412.135 359.355,420.801 360,429.5C 361.766,431.881 362.932,434.548 363.5,437.5C 370.147,449.336 380.147,453.502 393.5,450C 408.113,445.22 417.446,435.386 421.5,420.5C 422.368,423.327 422.368,426.327 421.5,429.5C 420.236,433.264 418.736,436.93 417,440.5C 414.297,443.371 411.464,446.038 408.5,448.5C 403.4,451.087 398.4,453.92 393.5,457C 387.295,459.436 380.962,459.936 374.5,458.5C 370.788,458.123 367.788,456.456 365.5,453.5C 359.184,447.54 354.351,440.54 351,432.5C 349.645,422.524 350.645,412.857 354,403.5C 356.372,401.297 358.539,398.963 360.5,396.5C 361.673,394.496 363.34,392.996 365.5,392C 370.994,390.782 375.828,391.949 380,395.5C 380.667,397.833 380.667,400.167 380,402.5C 378.644,403.38 377.144,403.714 375.5,403.5 Z"/></g>
<g><path style="opacity:1" fill="#fdf0c6" d="M 360.5,396.5 C 358.539,398.963 356.372,401.297 354,403.5C 350.645,412.857 349.645,422.524 351,432.5C 354.351,440.54 359.184,447.54 365.5,453.5C 355.268,447.426 349.768,438.426 349,426.5C 348.333,422.167 348.333,417.833 349,413.5C 350.618,409.932 351.951,406.265 353,402.5C 355.106,399.882 357.606,397.882 360.5,396.5 Z"/></g>
<g><path style="opacity:1" fill="#f2b2f2" d="M 340.5,437.5 C 339.292,436.766 337.959,436.433 336.5,436.5C 336.335,439.518 336.502,442.518 337,445.5C 337.278,446.416 337.778,447.082 338.5,447.5C 338.5,449.167 338.5,450.833 338.5,452.5C 337.073,450.852 336.24,448.852 336,446.5C 335.333,442.833 335.333,439.167 336,435.5C 338.501,433.944 340.001,434.611 340.5,437.5 Z"/></g>
<g><path style="opacity:1" fill="#f97ef9" d="M 365.5,467.5 C 374.945,472.482 384.945,475.982 395.5,478C 396.977,479.884 398.31,481.884 399.5,484C 406.673,484.407 413.673,484.574 420.5,484.5C 420.023,485.478 419.357,486.311 418.5,487C 412.638,488.951 406.971,491.285 401.5,494C 392.381,496.101 383.381,495.934 374.5,493.5C 372.04,492.109 369.374,490.942 366.5,490C 366.327,488.091 365.993,486.257 365.5,484.5C 359.925,478.562 353.592,473.895 346.5,470.5C 343.407,464.724 340.74,458.724 338.5,452.5C 338.5,450.833 338.5,449.167 338.5,447.5C 338.5,445.833 338.5,444.167 338.5,442.5C 340.39,442.297 341.89,442.963 343,444.5C 344.118,446.765 344.951,449.099 345.5,451.5C 346.552,451.351 347.552,451.517 348.5,452C 350.67,457.501 354.67,460.834 360.5,462C 362.155,463.444 362.822,465.278 362.5,467.5C 363.5,467.5 364.5,467.5 365.5,467.5 Z"/></g>
<g><path style="opacity:1" fill="#ef90ee" d="M 340.5,437.5 C 345.396,442.948 349.563,448.948 353,455.5C 354.167,456.667 355.333,457.833 356.5,459C 359.477,459.481 362.143,460.648 364.5,462.5C 365.309,464.071 365.643,465.738 365.5,467.5C 364.5,467.5 363.5,467.5 362.5,467.5C 362.822,465.278 362.155,463.444 360.5,462C 354.67,460.834 350.67,457.501 348.5,452C 347.552,451.517 346.552,451.351 345.5,451.5C 344.951,449.099 344.118,446.765 343,444.5C 341.89,442.963 340.39,442.297 338.5,442.5C 338.5,444.167 338.5,445.833 338.5,447.5C 337.778,447.082 337.278,446.416 337,445.5C 336.502,442.518 336.335,439.518 336.5,436.5C 337.959,436.433 339.292,436.766 340.5,437.5 Z"/></g>
<g><path style="opacity:1" fill="#fbe8b4" d="M 408.5,448.5 C 403.01,454.419 396.343,458.585 388.5,461C 383.362,462.051 378.695,461.217 374.5,458.5C 380.962,459.936 387.295,459.436 393.5,457C 398.4,453.92 403.4,451.087 408.5,448.5 Z"/></g>
<g><path style="opacity:1" fill="#eaa1eb" d="M 365.5,484.5 C 365.993,486.257 366.327,488.091 366.5,490C 369.374,490.942 372.04,492.109 374.5,493.5C 364.842,492.03 357.008,487.364 351,479.5C 350.409,478.517 350.743,477.85 352,477.5C 354.968,479.631 357.801,481.964 360.5,484.5C 362.299,485.788 363.965,485.788 365.5,484.5 Z"/></g>
<g><path style="opacity:0.106" fill="#5f82a1" d="M 614.5,136.5 C 615.167,136.833 615.833,137.167 616.5,137.5C 615.525,199.936 615.192,262.936 615.5,326.5C 615.5,326.833 615.5,327.167 615.5,327.5C 615.518,423.652 615.518,519.652 615.5,615.5C 615.5,616.5 615.5,617.5 615.5,618.5C 614.833,618.5 614.167,618.5 613.5,618.5C 613.5,617.167 613.5,615.833 613.5,614.5C 614.5,455.334 614.833,296.001 614.5,136.5 Z"/></g>
<g><path style="opacity:0.027" fill="#a3dbe4" d="M 615.5,327.5 C 616.167,420.5 616.833,513.5 617.5,606.5C 617.932,609.877 617.265,612.877 615.5,615.5C 615.518,519.652 615.518,423.652 615.5,327.5 Z"/></g>
<g><path style="opacity:1" fill="#14426a" d="M 560.5,635.5 C 556.212,556.097 551.212,476.764 545.5,397.5C 542.153,342.854 539.153,288.188 536.5,233.5C 516.167,233.5 495.833,233.5 475.5,233.5C 475.5,233.167 475.5,232.833 475.5,232.5C 476.332,206.67 476.832,180.67 477,154.5C 477.481,157.477 478.648,160.143 480.5,162.5C 481.333,177.822 481.833,193.156 482,208.5C 482.413,211.232 483.08,213.899 484,216.5C 484.333,216.167 484.667,215.833 485,215.5C 486.609,219.061 489.442,220.727 493.5,220.5C 504.495,219.234 515.495,219.234 526.5,220.5C 529.473,224.657 533.473,227.324 538.5,228.5C 539.803,230.968 541.303,233.301 543,235.5C 544.05,245.165 544.883,254.832 545.5,264.5C 544.808,266.335 545.142,268.168 546.5,270C 546.074,277.196 545.741,284.696 545.5,292.5C 548.07,298.504 549.737,304.504 550.5,310.5C 549.947,313.135 549.614,315.801 549.5,318.5C 550.799,326.786 551.799,335.119 552.5,343.5C 552.249,345.845 551.915,348.178 551.5,350.5C 552.396,367.927 553.396,385.26 554.5,402.5C 553.757,404.638 553.09,406.804 552.5,409C 553.13,415.347 554.796,421.347 557.5,427C 556.323,429.688 556.323,432.354 557.5,435C 557.108,436.011 556.441,436.511 555.5,436.5C 555.95,445.094 555.95,453.594 555.5,462C 555.563,464.281 556.397,466.114 558,467.5C 558.175,473.628 559.009,479.628 560.5,485.5C 559.657,493.872 559.99,502.205 561.5,510.5C 561.277,520.496 561.277,530.496 561.5,540.5C 563.783,550.645 564.449,560.812 563.5,571C 564.5,573.333 565.5,575.667 566.5,578C 565.77,581.562 565.437,585.062 565.5,588.5C 566.214,591.595 567.214,594.595 568.5,597.5C 568.379,598.894 568.046,600.228 567.5,601.5C 568.851,605.545 569.517,609.712 569.5,614C 567.018,627.257 567.351,640.424 570.5,653.5C 569.953,656.826 569.453,660.16 569,663.5C 567.89,665.037 566.39,665.703 564.5,665.5C 564.666,660.489 564.499,655.489 564,650.5C 562.493,645.444 561.326,640.444 560.5,635.5 Z"/></g>
<g><path style="opacity:1" fill="#668ec2" d="M 466.5,321.5 C 467.726,326.4 469.559,331.066 472,335.5C 472.333,335.167 472.667,334.833 473,334.5C 473.256,338.59 475.422,340.923 479.5,341.5C 477.205,343.509 475.872,345.675 475.5,348C 478.93,352.197 480.93,357.03 481.5,362.5C 486.409,364.863 487.742,369.029 485.5,375C 487.31,378.859 488.976,382.859 490.5,387C 490.043,387.414 489.709,387.914 489.5,388.5C 491.021,399.26 492.021,410.093 492.5,421C 489.862,428.964 488.195,437.131 487.5,445.5C 486.713,446.242 486.047,447.075 485.5,448C 485.721,449.799 486.054,451.632 486.5,453.5C 484.812,456.659 482.979,459.659 481,462.5C 480.667,460.833 480.333,459.167 480,457.5C 479.683,459.301 479.016,459.634 478,458.5C 477.333,460.833 477.333,463.167 478,465.5C 480.127,466.397 480.627,467.731 479.5,469.5C 478.15,468.05 476.484,467.383 474.5,467.5C 474.662,469.527 474.495,471.527 474,473.5C 472.29,477.773 470.79,482.106 469.5,486.5C 465.135,489.292 462.302,493.292 461,498.5C 457.684,502.146 454.018,505.479 450,508.5C 449.667,510.167 449.333,511.833 449,513.5C 443.667,517.5 438.333,521.5 433,525.5C 432.187,527.436 431.687,529.436 431.5,531.5C 432.978,531.238 434.311,531.571 435.5,532.5C 432.285,535.953 428.785,536.287 425,533.5C 421.643,534.742 421.81,535.576 425.5,536C 424.5,537.667 423.167,539 421.5,540C 416.714,542.518 411.714,544.352 406.5,545.5C 405.925,549.473 403.758,550.473 400,548.5C 399.167,549.333 398.333,550.167 397.5,551C 393.167,551.667 388.833,551.667 384.5,551C 389.064,549.869 393.731,548.869 398.5,548C 399.205,546.443 398.539,545.277 396.5,544.5C 393.627,545.875 390.627,546.875 387.5,547.5C 376.024,546.801 364.524,546.135 353,545.5C 351.893,545.585 350.893,545.919 350,546.5C 340.949,541.724 331.783,537.058 322.5,532.5C 320.622,528.733 317.622,526.733 313.5,526.5C 313.88,524.302 313.213,522.635 311.5,521.5C 311.5,520.833 311.5,520.167 311.5,519.5C 312.76,517.633 314.427,516.3 316.5,515.5C 350.39,544.613 387.057,548.447 426.5,527C 452.777,508.221 469.943,483.388 478,452.5C 489.412,409.314 483.912,368.647 461.5,330.5C 461.877,326.788 463.544,323.788 466.5,321.5 Z"/></g>
<g><path style="opacity:1" fill="#608eba" d="M 204.5,497.5 C 202.915,542.416 199.915,587.083 195.5,631.5C 197.589,592.836 199.756,554.169 202,515.5C 202.838,509.353 203.671,503.353 204.5,497.5 Z"/></g>
<g><path style="opacity:1" fill="#e3edf5" d="M 373.5,626.5 C 373.5,626.833 373.5,627.167 373.5,627.5C 374.73,629.297 375.396,631.297 375.5,633.5C 374.022,633.762 372.689,633.429 371.5,632.5C 369.997,628.001 367.664,624.001 364.5,620.5C 362.803,621.364 361.637,622.697 361,624.5C 360.502,627.482 360.335,630.482 360.5,633.5C 359.5,633.5 358.5,633.5 357.5,633.5C 357.5,620.833 357.5,608.167 357.5,595.5C 358.833,595.5 360.167,595.5 361.5,595.5C 361.334,602.841 361.5,610.174 362,617.5C 364.713,613.908 367.547,610.408 370.5,607C 371.944,606.219 373.277,606.386 374.5,607.5C 372.132,610.858 369.799,614.191 367.5,617.5C 369.275,620.738 371.275,623.738 373.5,626.5 Z"/></g>
<g><path style="opacity:1" fill="#e1edf5" d="M 297.5,641.5 C 297.5,642.5 297.5,643.5 297.5,644.5C 296.167,644.5 294.833,644.5 293.5,644.5C 293.5,631.833 293.5,619.167 293.5,606.5C 295.39,606.297 296.89,606.963 298,608.5C 301.257,605.572 305.091,604.738 309.5,606C 317.803,615.267 317.47,624.267 308.5,633C 304.882,633.966 301.549,633.466 298.5,631.5C 297.513,634.768 297.18,638.102 297.5,641.5 Z"/></g>
<g><path style="opacity:1" fill="#6a8ebc" d="M 373.5,626.5 C 371.275,623.738 369.275,620.738 367.5,617.5C 369.799,614.191 372.132,610.858 374.5,607.5C 373.277,606.386 371.944,606.219 370.5,607C 367.547,610.408 364.713,613.908 362,617.5C 361.5,610.174 361.334,602.841 361.5,595.5C 360.167,595.5 358.833,595.5 357.5,595.5C 357.5,608.167 357.5,620.833 357.5,633.5C 358.5,633.5 359.5,633.5 360.5,633.5C 360.335,630.482 360.502,627.482 361,624.5C 361.637,622.697 362.803,621.364 364.5,620.5C 367.664,624.001 369.997,628.001 371.5,632.5C 372.689,633.429 374.022,633.762 375.5,633.5C 375.396,631.297 374.73,629.297 373.5,627.5C 374.5,627.5 375.5,627.5 376.5,627.5C 376.5,630.167 376.5,632.833 376.5,635.5C 374.076,635.808 371.743,635.474 369.5,634.5C 369.113,633.28 368.28,632.613 367,632.5C 362.472,635.948 358.139,635.948 354,632.5C 353.503,629.854 353.336,627.187 353.5,624.5C 352.325,624.281 351.325,624.614 350.5,625.5C 348.728,627.941 347.394,630.608 346.5,633.5C 343.185,634.553 339.852,634.553 336.5,633.5C 336.389,634.117 336.056,634.617 335.5,635C 330.179,636.434 324.846,636.601 319.5,635.5C 317.884,631.724 316.884,632.058 316.5,636.5C 309.223,634.783 302.889,636.45 297.5,641.5C 297.18,638.102 297.513,634.768 298.5,631.5C 301.549,633.466 304.882,633.966 308.5,633C 317.47,624.267 317.803,615.267 309.5,606C 305.091,604.738 301.257,605.572 298,608.5C 296.89,606.963 295.39,606.297 293.5,606.5C 293.5,619.167 293.5,631.833 293.5,644.5C 292.351,644.209 291.684,643.376 291.5,642C 290.854,638.188 290.354,634.354 290,630.5C 284.735,634.442 278.901,635.775 272.5,634.5C 269.876,631.228 268.21,627.561 267.5,623.5C 267.928,618.823 269.594,618.49 272.5,622.5C 273.827,623.8 275.16,625.133 276.5,626.5C 276.833,625.5 277.167,624.5 277.5,623.5C 276.978,621.074 275.645,619.24 273.5,618C 274.838,615.276 273.838,614.109 270.5,614.5C 270.769,612.571 270.269,610.905 269,609.5C 266.398,594.39 272.231,589.557 286.5,595C 288.269,597.057 290.269,598.89 292.5,600.5C 295.352,601.103 298.018,600.436 300.5,598.5C 308.354,600.527 316.354,601.027 324.5,600C 325.818,598.092 327.652,597.258 330,597.5C 332.792,598.232 335.459,599.232 338,600.5C 341.683,598.426 345.516,598.093 349.5,599.5C 351.607,597.47 353.607,595.303 355.5,593C 359.882,591.581 363.216,592.748 365.5,596.5C 364.477,598.003 363.477,599.503 362.5,601C 363.287,603.099 363.62,605.266 363.5,607.5C 365.167,607.5 366.833,607.5 368.5,607.5C 368.5,606.5 368.5,605.5 368.5,604.5C 370.857,604.337 373.19,604.503 375.5,605C 376.059,605.725 376.392,606.558 376.5,607.5C 373.631,610.147 371.631,613.481 370.5,617.5C 371.308,620.592 372.308,623.592 373.5,626.5 Z"/></g>
<g><path style="opacity:1" fill="#e6f0f8" d="M 336.5,633.5 C 334.508,633.672 332.842,633.005 331.5,631.5C 325.964,634.772 321.464,633.772 318,628.5C 317.024,617.996 321.857,613.996 332.5,616.5C 330.839,608.918 327.006,607.584 321,612.5C 319.72,612.387 318.887,611.72 318.5,610.5C 324.172,603.925 330.005,603.925 336,610.5C 336.5,618.159 336.666,625.826 336.5,633.5 Z"/></g>
<g><path style="opacity:1" fill="#6686b0" d="M 323.5,619.5 C 332.469,618.607 334.469,621.774 329.5,629C 321.426,629.852 319.426,626.685 323.5,619.5 Z"/></g>
<g><path style="opacity:1" fill="#678bbc" d="M 301.5,609.5 C 310.243,610.11 313.41,614.776 311,623.5C 307.067,631.05 302.734,631.383 298,624.5C 296.461,618.693 297.628,613.693 301.5,609.5 Z"/></g>
<g><path style="opacity:1" fill="#e6f1f8" d="M 272.5,622.5 C 274.769,630.012 278.936,631.345 285,626.5C 285.814,624.098 285.647,621.765 284.5,619.5C 279.029,616.776 274.362,613.109 270.5,608.5C 268.282,602.883 269.616,598.383 274.5,595C 279.437,593.631 283.604,594.797 287,598.5C 287.494,600.134 287.66,601.801 287.5,603.5C 284.828,601.684 281.995,600.017 279,598.5C 274.464,599.37 272.797,602.037 274,606.5C 275.5,608 277,609.5 278.5,611C 288.282,614.322 291.116,620.822 287,630.5C 278.398,636.043 272.231,634.043 268.5,624.5C 269.32,622.889 270.654,622.222 272.5,622.5 Z"/></g>
<g><path style="opacity:1" fill="#d5e4f1" d="M 348.5,605.5 C 350.5,605.5 352.5,605.5 354.5,605.5C 354.5,607.167 354.5,608.833 354.5,610.5C 351.245,610.014 348.578,611.014 346.5,613.5C 345.503,620.134 345.17,626.8 345.5,633.5C 344.167,633.5 342.833,633.5 341.5,633.5C 341.5,624.5 341.5,615.5 341.5,606.5C 343.451,606.227 344.951,606.893 346,608.5C 347.045,607.627 347.878,606.627 348.5,605.5 Z"/></g>
<g><path style="opacity:0.055" fill="#b6cee6" d="M 613.5,618.5 C 614.167,618.5 614.833,618.5 615.5,618.5C 616.09,623.64 615.09,628.307 612.5,632.5C 611.876,632.083 611.543,631.416 611.5,630.5C 613.004,626.639 613.671,622.639 613.5,618.5 Z"/></g>
<g><path style="opacity:1" fill="#678ec0" d="M 414.5,598.5 C 414.5,600.833 414.5,603.167 414.5,605.5C 413.167,605.5 411.833,605.5 410.5,605.5C 410.5,607.167 410.5,608.833 410.5,610.5C 411.833,610.5 413.167,610.5 414.5,610.5C 414.334,617.175 414.5,623.842 415,630.5C 417.196,633.125 420.03,634.125 423.5,633.5C 423.5,632.167 423.5,630.833 423.5,629.5C 421.856,629.714 420.356,629.38 419,628.5C 418.501,622.509 418.334,616.509 418.5,610.5C 420.167,610.5 421.833,610.5 423.5,610.5C 423.5,608.833 423.5,607.167 423.5,605.5C 425.094,605.92 426.594,606.586 428,607.5C 429.567,606.144 431.4,605.477 433.5,605.5C 424.933,613.582 424.267,622.415 431.5,632C 439.786,635.607 445.286,633.107 448,624.5C 448.667,620.5 448.667,616.5 448,612.5C 445.989,610.656 444.155,608.656 442.5,606.5C 450.173,605.066 457.839,603.566 465.5,602C 466,601.5 466.5,601 467,600.5C 467.741,601.641 468.575,601.641 469.5,600.5C 470.833,601.5 472.167,602.5 473.5,603.5C 475.55,602.923 476.55,601.59 476.5,599.5C 479.469,598.671 482.469,598.505 485.5,599C 485.167,599.333 484.833,599.667 484.5,600C 487.198,602.009 489.864,604.009 492.5,606C 492.767,609.032 493.767,611.699 495.5,614C 493.277,614.652 492.11,616.152 492,618.5C 491.211,622.091 491.378,625.591 492.5,629C 490.438,631.068 489.272,633.568 489,636.5C 480.92,642.722 474.086,641.722 468.5,633.5C 467.15,634.95 465.484,635.617 463.5,635.5C 463.5,633.167 463.5,630.833 463.5,628.5C 458.982,629.221 458.315,631.388 461.5,635C 458.356,638.597 454.523,639.431 450,637.5C 444.158,640.933 437.991,641.433 431.5,639C 430.354,638.355 429.354,637.522 428.5,636.5C 427.061,638.972 424.894,640.305 422,640.5C 417.732,639.059 413.565,637.392 409.5,635.5C 402.728,642.271 395.895,642.604 389,636.5C 388.304,633.522 387.804,630.522 387.5,627.5C 385.674,625.545 385.174,623.212 386,620.5C 387.734,621.249 389.567,621.749 391.5,622C 392.397,624.127 393.731,624.627 395.5,623.5C 394.687,622.186 393.687,621.019 392.5,620C 393.956,619.577 394.456,618.744 394,617.5C 384.562,609.516 384.062,601.016 392.5,592C 395.833,591.333 399.167,591.333 402.5,592C 403.772,593.307 404.772,594.807 405.5,596.5C 408.941,597.607 410.941,599.94 411.5,603.5C 412.935,602.053 413.935,600.386 414.5,598.5 Z"/></g>
<g><path style="opacity:1" fill="#e5f0f8" d="M 474.5,605.5 C 477.518,605.335 480.518,605.502 483.5,606C 487.299,610.097 488.965,614.931 488.5,620.5C 482.833,620.5 477.167,620.5 471.5,620.5C 473.134,630.291 477.634,631.957 485,625.5C 486.28,625.613 487.113,626.28 487.5,627.5C 484.5,633.143 479.833,634.976 473.5,633C 467.093,626.023 465.926,618.189 470,609.5C 471.397,607.93 472.897,606.596 474.5,605.5 Z"/></g>
<g><path style="opacity:1" fill="#e3eff6" d="M 433.5,605.5 C 436.57,605.368 439.57,605.701 442.5,606.5C 444.155,608.656 445.989,610.656 448,612.5C 448.667,616.5 448.667,620.5 448,624.5C 445.286,633.107 439.786,635.607 431.5,632C 424.267,622.415 424.933,613.582 433.5,605.5 Z"/></g>
<g><path style="opacity:1" fill="#6c8db9" d="M 434.5,609.5 C 438.639,608.704 441.805,610.037 444,613.5C 444.667,617.5 444.667,621.5 444,625.5C 439.155,631.079 434.822,630.746 431,624.5C 429.461,618.693 430.628,613.693 434.5,609.5 Z"/></g>
<g><path style="opacity:1" fill="#6a86ac" d="M 475.5,609.5 C 481.183,608.646 483.849,610.98 483.5,616.5C 479.833,616.5 476.167,616.5 472.5,616.5C 472.166,613.509 473.166,611.176 475.5,609.5 Z"/></g>
<g><path style="opacity:1" fill="#e5f0f7" d="M 387.5,627.5 C 387.5,625.833 387.5,624.167 387.5,622.5C 390.805,624.794 394.138,627.127 397.5,629.5C 402.615,628.561 404.781,625.561 404,620.5C 400.919,617.707 397.419,615.54 393.5,614C 386.921,607.7 386.921,601.367 393.5,595C 399.488,593.495 403.822,595.495 406.5,601C 406.333,602.5 405.5,603.333 404,603.5C 402.606,602.387 401.439,601.053 400.5,599.5C 394.251,598.253 391.751,600.92 393,607.5C 396.081,610.293 399.581,612.46 403.5,614C 408.309,618.961 408.809,624.461 405,630.5C 401.319,633.36 397.152,634.193 392.5,633C 391.167,630.809 389.5,628.976 387.5,627.5 Z"/></g>
<g><path style="opacity:1" fill="#e1ecf6" d="M 414.5,598.5 C 415.833,598.5 417.167,598.5 418.5,598.5C 418.5,600.833 418.5,603.167 418.5,605.5C 420.167,605.5 421.833,605.5 423.5,605.5C 423.5,607.167 423.5,608.833 423.5,610.5C 421.833,610.5 420.167,610.5 418.5,610.5C 418.334,616.509 418.501,622.509 419,628.5C 420.356,629.38 421.856,629.714 423.5,629.5C 423.5,630.833 423.5,632.167 423.5,633.5C 420.03,634.125 417.196,633.125 415,630.5C 414.5,623.842 414.334,617.175 414.5,610.5C 413.167,610.5 411.833,610.5 410.5,610.5C 410.5,608.833 410.5,607.167 410.5,605.5C 411.833,605.5 413.167,605.5 414.5,605.5C 414.5,603.167 414.5,600.833 414.5,598.5 Z"/></g>
<g><path style="opacity:1" fill="#deeaf3" d="M 459.5,605.5 C 461.5,605.5 463.5,605.5 465.5,605.5C 465.5,607.167 465.5,608.833 465.5,610.5C 462.03,609.875 459.196,610.875 457,613.5C 456.5,620.158 456.334,626.825 456.5,633.5C 455.178,633.67 454.011,633.337 453,632.5C 452.5,623.84 452.334,615.173 452.5,606.5C 454.262,606.357 455.929,606.691 457.5,607.5C 458.522,607.145 459.189,606.478 459.5,605.5 Z"/></g>
<g><path style="opacity:0.063" fill="#aac0d5" d="M 612.5,633.5 C 606.541,653.832 593.208,666.498 572.5,671.5C 574.261,670.687 575.928,669.687 577.5,668.5C 593.4,661.938 604.067,650.604 609.5,634.5C 610.325,633.614 611.325,633.281 612.5,633.5 Z"/></g>
<g><path style="opacity:0.58" fill="#7e9cc1" d="M 174.5,666.5 C 180.404,669.557 186.737,670.89 193.5,670.5C 316.5,670.5 439.5,670.5 562.5,670.5C 567.636,670.708 572.636,670.041 577.5,668.5C 575.928,669.687 574.261,670.687 572.5,671.5C 572.167,671.5 571.833,671.5 571.5,671.5C 444.496,670.835 317.829,671.502 191.5,673.5C 187.288,672.253 182.955,671.42 178.5,671C 177.309,670.302 176.309,669.469 175.5,668.5C 175.167,667.833 174.833,667.167 174.5,666.5 Z"/></g>
<g><path style="opacity:0.241" fill="#a5b7d0" d="M 571.5,671.5 C 569.369,672.314 567.036,672.814 564.5,673C 440.167,673.5 315.834,673.667 191.5,673.5C 317.829,671.502 444.496,670.835 571.5,671.5 Z"/></g>
</svg>
